<svg width="16" height="16" viewBox="0 0 16 16" fill="none" xmlns="http://www.w3.org/2000/svg">
<path d="M16 8C16 12.4 12.4 16 8 16C3.6 16 0 12.4 0 8C0 3.6 3.6 0 8 0C12.4 0 16 3.6 16 8Z" fill="#00CC83"/>
<path d="M11.1202 5.83973C11.2802 5.99973 11.2802 6.31973 11.1202 6.47973L7.44019 10.1597C7.36019 10.2397 7.20019 10.3197 7.12019 10.3197C7.04019 10.3197 6.88019 10.2397 6.80019 10.1597L4.88019 8.23973C4.72019 8.07973 4.72019 7.75973 4.88019 7.59973C5.04019 7.43973 5.36019 7.43973 5.52019 7.59973L7.12019 9.19973L10.4802 5.83973C10.6402 5.67973 10.9602 5.67973 11.1202 5.83973Z" fill="white"/>
</svg>
