<svg width="116" height="116" viewBox="0 0 116 116" fill="none" xmlns="http://www.w3.org/2000/svg">
<path d="M16.5 58.0002C16.5 29.5002 37.7 5.9002 65.3 2.2002C62.8 1.9002 60.3 1.7002 57.8 1.7002C26.7 1.7002 1.5 26.9002 1.5 58.0002C1.5 89.1002 26.7 114.3 57.8 114.3C60.3 114.3 62.8 114.1 65.3 113.8C37.8 110.1 16.5 86.5002 16.5 58.0002Z" fill="#F1E8F0"/>
<path d="M114 56C112.9 56 112 56.9 112 58C112 87.8 87.8 112 58 112C28.2 112 4 87.8 4 58C4 28.2 28.2 4 58 4C69.3 4 80.2 7.5 89.4 14.1L97.3 19.7H80.8C79.7 19.7 78.8 20.6 78.8 21.7C78.8 22.8 79.7 23.7 80.8 23.7H100.6C101.7 23.7 102.6 22.8 102.6 21.7V2C102.6 0.9 101.7 0 100.6 0C99.5 0 98.6 0.9 98.6 2V16L93.6 12.1C83.4 4.3 70.8 0 58 0C42.5 0 27.9 6 17 17C6 27.9 0 42.5 0 58C0 73.5 6 88.1 17 99C28 110 42.5 116 58 116C73.5 116 88.1 110 99 99C110 88 116 73.5 116 58C116 56.9 115.1 56 114 56Z" fill="#721B65"/>
<path d="M41.6001 72.2002C41.6001 60.5002 50.3001 50.7002 61.5001 49.0002C60.3001 48.8002 59.2001 48.7002 58.0001 48.7002C45.1001 48.7002 34.6001 59.3002 34.6001 72.1002C34.6001 84.9002 45.1001 95.7002 58.0001 95.7002C59.2001 95.7002 60.3001 95.6002 61.5001 95.4002C50.3001 93.7002 41.6001 83.9002 41.6001 72.2002Z" fill="#F1E8F0"/>
<path d="M78.4001 55.2998V37.6998C78.4001 26.4998 69.3001 17.2998 58.0001 17.2998C46.8001 17.2998 37.7001 26.3998 37.7001 37.6998V55.2998C33.7001 59.9998 31.6001 65.9998 31.6001 72.1998C31.6001 86.7998 43.5001 98.5998 58.0001 98.5998C72.5001 98.5998 84.4001 86.6998 84.4001 72.1998C84.5001 66.0998 82.4001 60.0998 78.4001 55.2998ZM58.0001 49.5998C70.5001 49.5998 80.6001 59.6998 80.6001 72.1998C80.6001 84.5998 70.5001 94.6998 58.0001 94.6998C45.6001 94.6998 35.5001 84.5998 35.5001 72.1998C35.5001 59.7998 45.6001 49.5998 58.0001 49.5998ZM74.3001 51.2998C73.8001 50.8998 73.3001 50.5998 72.8001 50.1998L70.1001 48.5998C66.3001 46.5998 62.2001 45.5998 58.0001 45.5998C53.8001 45.5998 49.7001 46.5998 45.9001 48.5998L43.2001 50.1998C42.7001 50.5998 42.1001 50.9998 41.6001 51.3998V37.6998C41.6001 28.6998 48.9001 21.2998 58.0001 21.2998C67.0001 21.2998 74.4001 28.5998 74.4001 37.6998V51.2998H74.3001Z" fill="#721B65"/>
<path d="M63.6 67.3002C62.9 65.1002 60.8 63.7002 58.5 63.7002C56.2 63.7002 54.2 65.1002 53.4 67.3002C52.7 69.4002 53.3 71.7002 55 73.1002V77.2002C55 79.1002 56.5 80.6002 58.4 80.6002C60.3 80.6002 61.8 79.1002 61.8 77.2002V73.1002C63.7 71.8002 64.4 69.4002 63.6 67.3002ZM59 72.4002V77.2002C59 77.4002 58.8 77.6002 58.6 77.6002C58.4 77.6002 58.2 77.4002 58.2 77.2002V72.4002C58.2 71.9002 57.9 71.4002 57.5 71.1002C56.6 70.6002 56.1 69.5002 56.4 68.5002C56.7 67.5002 57.6 66.8002 58.7 66.8002C59.8 66.8002 60.7 67.5002 61 68.5002C61.3 69.5002 60.8 70.6002 59.9 71.1002C59.3 71.4002 59 71.9002 59 72.4002Z" fill="#721B65"/>
</svg>
